<mxfile host="app.diagrams.net" modified="2021-02-06T15:30:33.907Z" agent="5.0 (X11; Linux x86_64) AppleWebKit/537.36 (KHTML, like Gecko) Chrome/87.0.4280.67 Safari/537.36" etag="ElU_WbIooUC7eCvpBvYp" version="14.2.9" type="github">
  <diagram id="LKmkpp46hTWkXhTjWyJ0" name="Page-1">
    <mxGraphModel dx="1008" dy="858" grid="1" gridSize="10" guides="1" tooltips="1" connect="1" arrows="1" fold="1" page="1" pageScale="1" pageWidth="850" pageHeight="1100" math="0" shadow="0">
      <root>
        <mxCell id="0" />
        <mxCell id="1" parent="0" />
        <mxCell id="mG-zUL76Q8l5EKn-mLCW-1" value="" style="shape=cylinder3;whiteSpace=wrap;html=1;boundedLbl=1;backgroundOutline=1;size=15;fillColor=#bac8d3;strokeColor=#23445d;" vertex="1" parent="1">
          <mxGeometry x="260" y="150" width="90" height="110" as="geometry" />
        </mxCell>
        <mxCell id="mG-zUL76Q8l5EKn-mLCW-2" value="" style="shape=card;whiteSpace=wrap;html=1;fillColor=#d5e8d4;strokeColor=#82b366;" vertex="1" parent="1">
          <mxGeometry x="40" y="40" width="60" height="80" as="geometry" />
        </mxCell>
        <mxCell id="mG-zUL76Q8l5EKn-mLCW-3" value="" style="ellipse;whiteSpace=wrap;html=1;aspect=fixed;fillColor=#f8cecc;strokeColor=#b85450;" vertex="1" parent="1">
          <mxGeometry x="35" y="260" width="70" height="70" as="geometry" />
        </mxCell>
        <mxCell id="mG-zUL76Q8l5EKn-mLCW-4" value="" style="shape=hexagon;perimeter=hexagonPerimeter2;whiteSpace=wrap;html=1;fixedSize=1;fillColor=#d0cee2;strokeColor=#56517e;" vertex="1" parent="1">
          <mxGeometry x="480" y="160" width="120" height="80" as="geometry" />
        </mxCell>
        <mxCell id="mG-zUL76Q8l5EKn-mLCW-5" value="" style="endArrow=classic;html=1;entryX=0.5;entryY=1;entryDx=0;entryDy=0;entryPerimeter=0;" edge="1" parent="1" target="mG-zUL76Q8l5EKn-mLCW-1">
          <mxGeometry width="50" height="50" relative="1" as="geometry">
            <mxPoint x="105" y="300" as="sourcePoint" />
            <mxPoint x="300" y="300" as="targetPoint" />
            <Array as="points">
              <mxPoint x="305" y="300" />
            </Array>
          </mxGeometry>
        </mxCell>
        <mxCell id="mG-zUL76Q8l5EKn-mLCW-6" value="" style="endArrow=classic;html=1;entryX=0.5;entryY=0;entryDx=0;entryDy=0;entryPerimeter=0;" edge="1" parent="1" target="mG-zUL76Q8l5EKn-mLCW-1">
          <mxGeometry width="50" height="50" relative="1" as="geometry">
            <mxPoint x="100" y="80" as="sourcePoint" />
            <mxPoint x="150" y="30" as="targetPoint" />
            <Array as="points">
              <mxPoint x="305" y="80" />
            </Array>
          </mxGeometry>
        </mxCell>
        <mxCell id="mG-zUL76Q8l5EKn-mLCW-7" value="" style="endArrow=classic;html=1;entryX=-0.036;entryY=0.445;entryDx=0;entryDy=0;entryPerimeter=0;exitX=1;exitY=0.5;exitDx=0;exitDy=0;" edge="1" parent="1" source="mG-zUL76Q8l5EKn-mLCW-8" target="mG-zUL76Q8l5EKn-mLCW-1">
          <mxGeometry width="50" height="50" relative="1" as="geometry">
            <mxPoint x="105" y="200" as="sourcePoint" />
            <mxPoint x="155" y="150" as="targetPoint" />
          </mxGeometry>
        </mxCell>
        <mxCell id="mG-zUL76Q8l5EKn-mLCW-8" value="" style="whiteSpace=wrap;html=1;aspect=fixed;fillColor=#dae8fc;strokeColor=#6c8ebf;" vertex="1" parent="1">
          <mxGeometry x="40" y="170" width="60" height="60" as="geometry" />
        </mxCell>
        <mxCell id="mG-zUL76Q8l5EKn-mLCW-9" value="&lt;font style=&quot;font-size: 17px&quot; face=&quot;Courier New&quot;&gt;&lt;b&gt;PUBLIC&lt;/b&gt;&lt;/font&gt;" style="text;html=1;strokeColor=none;fillColor=none;align=center;verticalAlign=middle;whiteSpace=wrap;rounded=0;" vertex="1" parent="1">
          <mxGeometry x="140" y="50" width="80" height="20" as="geometry" />
        </mxCell>
        <mxCell id="mG-zUL76Q8l5EKn-mLCW-10" value="&lt;font style=&quot;font-size: 17px&quot; face=&quot;Courier New&quot;&gt;&lt;b&gt;INTERFACE&lt;/b&gt;&lt;/font&gt;" style="text;html=1;strokeColor=none;fillColor=none;align=center;verticalAlign=middle;whiteSpace=wrap;rounded=0;" vertex="1" parent="1">
          <mxGeometry x="125" y="170" width="110" height="20" as="geometry" />
        </mxCell>
        <mxCell id="mG-zUL76Q8l5EKn-mLCW-11" value="&lt;font style=&quot;font-size: 17px&quot; face=&quot;Courier New&quot;&gt;&lt;b&gt;PRIVATE&lt;/b&gt;&lt;/font&gt;" style="text;html=1;strokeColor=none;fillColor=none;align=center;verticalAlign=middle;whiteSpace=wrap;rounded=0;" vertex="1" parent="1">
          <mxGeometry x="125" y="270" width="110" height="20" as="geometry" />
        </mxCell>
      </root>
    </mxGraphModel>
  </diagram>
</mxfile>
